<?xml version="1.0" encoding="UTF-8"?>
<!DOCTYPE svg PUBLIC "-//W3C//DTD SVG 1.1//EN" "http://www.w3.org/Graphics/SVG/1.1/DTD/svg11.dtd">
<!-- Creator: CorelDRAW -->
<svg xmlns="http://www.w3.org/2000/svg" xml:space="preserve" width="6.82666in" height="6.82666in" style="shape-rendering:geometricPrecision; text-rendering:geometricPrecision; image-rendering:optimizeQuality; fill-rule:evenodd; clip-rule:evenodd"
viewBox="0 0 6.82666 6.82666"
 xmlns:xlink="http://www.w3.org/1999/xlink">
 <defs>
  <style type="text/css">
   <![CDATA[
    .fil0 {fill:none}
    .fil1 {fill:#212121;fill-rule:nonzero}
    .fil2 {fill:#66BB6A;fill-rule:nonzero}
   ]]>
  </style>
 </defs>
 <g id="Layer_x0020_1">
  <metadata id="CorelCorpID_0Corel-Layer"/>
  <rect class="fil0" width="6.82666" height="6.82666"/>
  <path class="fil1" d="M4.77856 1.95916c0.0332047,0.165539 0.0769528,0.332398 0.119327,0.493984 0.0754843,0.287854 0.146807,0.559846 0.146807,0.759169 0,0.394866 -0.160063,0.752366 -0.418846,1.01115 -0.258776,0.258783 -0.61628,0.418846 -1.01115,0.418846 -0.394866,0 -0.752366,-0.160063 -1.01115,-0.418846 -0.258783,-0.258783 -0.418846,-0.616283 -0.418846,-1.01115 0,-0.199323 0.0713228,-0.471315 0.146807,-0.759169 0.0426102,-0.162492 0.0866181,-0.330315 0.119886,-0.496768l0.104583 0.0208346 -0.104598 -0.0209055c0.0102441,-0.0512677 0.0556575,-0.0865433 0.10613,-0.0857638l2.11591 0c0.0527559,0 0.0965669,0.0383071 0.105142,0.0886181zm-0.0865079 0.547315c-0.0368976,-0.140709 -0.0747953,-0.285232 -0.105122,-0.422594l-1.94446 0c-0.0303268,0.137362 -0.0682283,0.281886 -0.105122,0.422594 -0.071626,0.273146 -0.139303,0.531224 -0.139303,0.705839 0,0.33598 0.136177,0.64015 0.356343,0.860315 0.220165,0.220165 0.524335,0.356343 0.860315,0.356343 0.33598,0 0.64015,-0.136181 0.860311,-0.356343 0.220165,-0.220165 0.356343,-0.524335 0.356343,-0.860315 0,-0.174614 -0.0676772,-0.432693 -0.139303,-0.705839z"/>
  <path class="fil1" d="M3.72137 4.54821c0,-0.0589094 -0.0477598,-0.106669 -0.106669,-0.106669 -0.0589094,0 -0.106669,0.0477598 -0.106669,0.106669l0 1.31846c0,0.0589094 0.0477598,0.106669 0.106669,0.106669 0.0589094,0 0.106669,-0.0477598 0.106669,-0.106669l0 -1.31846z"/>
  <path class="fil1" d="M2.85149 5.75998c-0.0589094,0 -0.106669,0.0477598 -0.106669,0.106669 0,0.0589094 0.0477598,0.106669 0.106669,0.106669l1.52643 0c0.0589094,0 0.106669,-0.0477598 0.106669,-0.106669 0,-0.0589094 -0.0477598,-0.106669 -0.106669,-0.106669l-1.52643 0z"/>
  <path class="fil2" d="M2.22028 2.45679c-0.0407717,-0.0317677 -0.0770157,-0.0687165 -0.107882,-0.109728 -0.0741417,-0.0985197 -0.117102,-0.220874 -0.117102,-0.351417 0,-0.161213 0.0653425,-0.307157 0.170972,-0.412787 0.105634,-0.105634 0.251579,-0.170972 0.412791,-0.170972 0.158449,0 0.302303,0.0629252 0.40748,0.165331 0.0542677,0.0528386 0.0983228,0.11613 0.128862,0.186661l0.226067 0c-0.0395866,-0.130535 -0.11161,-0.246681 -0.206598,-0.339165 -0.143878,-0.140087 -0.34013,-0.226165 -0.555811,-0.226165 -0.220098,0 -0.419374,0.0892244 -0.563626,0.233476 -0.144252,0.144244 -0.233476,0.343524 -0.233476,0.563622 0,0.177154 0.0588583,0.343941 0.160441,0.478921 0.0600315,0.0797677 0.135055,0.148295 0.22172,0.201146 0.0179646,-0.0731811 0.0370591,-0.146122 0.0561614,-0.218921z"/>
  <path class="fil2" d="M4.03189 1.76387l0.260524 -0.697209 0.386705 0c0.0589094,0 0.106669,-0.0477598 0.106669,-0.106669 0,-0.0589094 -0.0477598,-0.106669 -0.106669,-0.106669l-0.45826 0c-0.0439764,-0.000834646 -0.0856772,0.0257874 -0.101945,0.0693307l0.0999213 0.0373386 -0.0995827 -0.0370827 -0.314244 0.840961 0.226882 0z"/>
 </g>
</svg>
