<?xml version="1.0" encoding="UTF-8"?>
<!DOCTYPE svg PUBLIC "-//W3C//DTD SVG 1.1//EN" "http://www.w3.org/Graphics/SVG/1.1/DTD/svg11.dtd">
<!-- Creator: CorelDRAW -->
<svg xmlns="http://www.w3.org/2000/svg" xml:space="preserve" width="6.82666in" height="6.82666in" style="shape-rendering:geometricPrecision; text-rendering:geometricPrecision; image-rendering:optimizeQuality; fill-rule:evenodd; clip-rule:evenodd"
viewBox="0 0 6.82666 6.82666"
 xmlns:xlink="http://www.w3.org/1999/xlink">
 <defs>
  <style type="text/css">
   <![CDATA[
    .fil0 {fill:none}
    .fil1 {fill:#212121;fill-rule:nonzero}
    .fil2 {fill:#66BB6A;fill-rule:nonzero}
   ]]>
  </style>
 </defs>
 <g id="Layer_x0020_1">
  <metadata id="CorelCorpID_0Corel-Layer"/>
  <rect class="fil0" width="6.82666" height="6.82666"/>
  <path class="fil1" d="M5.46542 4.5935c0.0570669,-0.0140354 0.0919528,-0.071685 0.0779173,-0.128752 -0.0140354,-0.0570669 -0.071685,-0.0919528 -0.128752,-0.0779173l-1.05781 0.263996c-0.0570669,0.0140354 -0.0919528,0.071685 -0.0779173,0.128752 0.0140354,0.0570669 0.071685,0.0919528 0.128752,0.0779173l1.05781 -0.263996z"/>
  <path class="fil1" d="M1.38667 4.6695c-0.0589094,0 -0.106669,0.0477598 -0.106669,0.106669 0,0.0589094 0.0477598,0.106669 0.106669,0.106669l2.77156 0c0.0589094,0 0.106669,-0.0477598 0.106669,-0.106669 0,-0.0589094 -0.0477598,-0.106669 -0.106669,-0.106669l-2.77156 0z"/>
  <path class="fil1" d="M1.5643 5.45022c-0.0276142,0.0517756 -0.00802362,0.116138 0.043752,0.143752 0.0517756,0.0276142 0.116138,0.00802362 0.143752,-0.043752l0.212268 -0.397606 2.98485 0 0.26878 0.406358c0.0324449,0.0490157 0.0984882,0.0624449 0.147504,0.03 0.0490157,-0.0324449 0.0624449,-0.0984882 0.03,-0.147504l-0.296461 -0.448213c-0.0183504,-0.0322402 -0.0530197,-0.0539803 -0.0927638,-0.0539803l-3.10337 0c-0.0388031,-0.000708661 -0.0766063,0.0198504 -0.0961378,0.0564331l0.0940984 0.0502362 -0.093752 -0.05 -0.242524 0.454276z"/>
  <path class="fil2" d="M1.46409 3.06491c0.0142677,0.0570669 0.0721024,0.0917677 0.129169,0.0775 0.0570669,-0.0142677 0.0917677,-0.0721024 0.0775,-0.129169l-0.00135039 -0.00549213c-0.0269567,-0.112791 -0.00664173,-0.225846 0.0483268,-0.317988 0.0559409,-0.0937717 0.147685,-0.166213 0.261945,-0.195087 0.114614,-0.0289567 0.229846,-0.00888189 0.323484,0.0469803 0.0937717,0.0559409 0.166213,0.147681 0.195083,0.261941 0.0142677,0.0570669 0.0721024,0.0917677 0.129169,0.0775 0.0570669,-0.0142677 0.0917677,-0.0721024 0.0775,-0.129169 -0.0289567,-0.11461 -0.00888189,-0.229843 0.0469803,-0.32348 0.0551772,-0.0924961 0.145201,-0.16424 0.257307,-0.193878 0.00164961,-0.000334646 0.00329134,-0.000704724 0.00493701,-0.00112205l-3.54331e-005 -0.000145669c0.114524,-0.0288622 0.22965,-0.00877953 0.323217,0.0470394 0.0924055,0.055126 0.164094,0.145012 0.193791,0.256961 0.00969685,0.0489252 0.0528504,0.0858189 0.104626,0.0858189 0.0589094,0 0.106669,-0.0477598 0.106669,-0.106669l0 -3.93701e-006c0,-0.0109449 -0.00165354,-0.0215039 -0.0047126,-0.0314409 -0.0269134,-0.112756 -0.00659055,-0.22576 0.0483583,-0.31787 0.0559409,-0.0937717 0.147685,-0.166217 0.261945,-0.195087 0.11461,-0.0289567 0.229843,-0.00888189 0.32348,0.0469803 0.0937677,0.055937 0.166213,0.147681 0.195083,0.261945 0.0142677,0.0570669 0.0721024,0.0917677 0.129169,0.0775l0.000590551 -0.00015748 0.000240157 -5.51181e-005c0.0570669,-0.0142677 0.0917677,-0.0721024 0.0775,-0.129169 -0.115476,-0.456996 -0.405276,-0.823937 -0.780461,-1.04776 -0.346996,-0.207012 -0.766776,-0.291669 -1.18904,-0.212083l-0.0315433 -0.124835c-0.0142677,-0.0570669 -0.0721024,-0.0917677 -0.129169,-0.0775 -0.0570669,0.0142677 -0.0917677,0.0721024 -0.0775,0.129169l0.0316929 0.125425c-0.409091,0.130768 -0.737917,0.404445 -0.944646,0.750969 -0.222567,0.373087 -0.303697,0.830315 -0.191311,1.2843 0.000649606,0.0027126 0.00131496,0.0054252 0.002,0.0081378zm2.86564 -1.29397c-0.105299,-0.0304764 -0.219705,-0.0342874 -0.333402,-0.00555906 -0.171303,0.0432835 -0.308866,0.151933 -0.39278,0.292591 -0.0218819,0.0366772 -0.0401142,0.0755197 -0.0543622,0.115921 -0.0316772,-0.028748 -0.0661024,-0.0542205 -0.102701,-0.0760551 -0.139079,-0.0829724 -0.309177,-0.113591 -0.478106,-0.0726693 -0.00446457,0.000830709 -0.00883465,0.00194094 -0.0130827,0.00330709 -0.16811,0.0444252 -0.303122,0.152035 -0.385906,0.290807 -0.0218819,0.0366811 -0.0401142,0.0755197 -0.0543622,0.115925 -0.0316772,-0.028748 -0.0661024,-0.0542244 -0.102701,-0.0760551 -0.140787,-0.0839921 -0.313354,-0.114343 -0.484319,-0.0711457 -0.11352,0.028685 -0.212213,0.0860787 -0.290303,0.162465 0.0268976,-0.202803 0.0952087,-0.396193 0.198197,-0.568831 0.195854,-0.328299 0.51698,-0.581894 0.916933,-0.682953 0.400295,-0.101146 0.803433,-0.0306299 1.1316,0.165146 0.172969,0.103189 0.325181,0.241161 0.445295,0.407106zm-0.587457 0.745512l0 -3.93701e-006 -0.10652 0 -1.5748e-005 3.93701e-006 -1.5748e-005 0 -0.103319 0.0258307 -1.9685e-005 -7.08661e-005 -0.00150394 -0.00611811 0.000232283 0.00120866 0.00127165 0.00490945 1.9685e-005 7.48031e-005 0.103335 -0.0258346 0.106535 0zm0 -3.93701e-006c-3.93701e-006,-0.00852756 -0.00103937,-0.017185 -0.00320079,-0.0258307l-0.103319 0.0258307 0.10652 0z"/>
  <path class="fil1" d="M2.94103 2.37887l0.910508 3.60338c0.0142677,0.0570669 0.0721024,0.0917677 0.129169,0.0775 0.0570669,-0.0142677 0.0917677,-0.0721024 0.0775,-0.129169l-0.910272 -3.60245c-0.0326575,-0.00293307 -0.0658622,-0.000838583 -0.0985591,0.00640945l-0.00901575 0.0022874c-0.00236614,0.000598425 -0.00462992,0.00109055 -0.00700787,0.00162205 -0.0335197,0.00782283 -0.0645079,0.0217638 -0.0923228,0.0404173z"/>
 </g>
</svg>
