<?xml version="1.0" encoding="UTF-8"?>
<!DOCTYPE svg PUBLIC "-//W3C//DTD SVG 1.1//EN" "http://www.w3.org/Graphics/SVG/1.1/DTD/svg11.dtd">
<!-- Creator: CorelDRAW -->
<svg xmlns="http://www.w3.org/2000/svg" xml:space="preserve" width="6.82666in" height="6.82666in" style="shape-rendering:geometricPrecision; text-rendering:geometricPrecision; image-rendering:optimizeQuality; fill-rule:evenodd; clip-rule:evenodd"
viewBox="0 0 6.82666 6.82666"
 xmlns:xlink="http://www.w3.org/1999/xlink">
 <defs>
  <style type="text/css">
   <![CDATA[
    .fil0 {fill:none}
    .fil1 {fill:#212121;fill-rule:nonzero}
    .fil2 {fill:#66BB6A;fill-rule:nonzero}
   ]]>
  </style>
 </defs>
 <g id="Layer_x0020_1">
  <metadata id="CorelCorpID_0Corel-Layer"/>
  <rect class="fil0" width="6.82666" height="6.82666"/>
  <path class="fil1" d="M2.61653 2.11257c-0.0413583,-0.00787795 -0.0842717,-0.0115472 -0.126988,-0.0110039 -0.0444921,0.000566929 -0.0895197,0.00595276 -0.133012,0.0161457l3.14961e-005 0.000133858c-0.00565748,0.00132677 -0.011315,0.00216929 -0.0169331,0.00257087 -0.278028,0.034185 -0.495937,0.203362 -0.645217,0.428949 -0.180161,0.272256 -0.260988,0.623709 -0.229646,0.924539 0.0053622,0.0516299 0.0408386,0.0835 0.0813071,0.0952402 0.0155906,0.00452362 0.0323268,0.00617717 0.0488898,0.00495669 0.0143661,-0.00105906 0.0276299,-0.0044252 0.0386102,-0.0100748 0.0196654,-0.010122 0.0328031,-0.0325039 0.0291378,-0.0681693l-0.000275591 2.75591e-005c-0.000779528,-0.00741339 -0.000779528,-0.0147283 -6.29921e-005,-0.0218661 0.00115354,-0.0916811 0.00779921,-0.258055 0.0404882,-0.420209 0.0372638,-0.184823 0.109634,-0.365488 0.248378,-0.446539l-0.000129921 -0.000224409c0.0508937,-0.0296654 0.116209,-0.0124606 0.145874,0.0384331 0.010122,0.0173661 0.0147835,0.0364094 0.0145157,0.0551417 -6.29921e-005,0.614323 -0.0400551,1.23374 -0.0799843,1.85228 -0.0237283,0.367583 -0.0474449,0.734874 -0.0623701,1.09185 -0.00223622,0.0540433 0.0236024,0.088378 0.0585118,0.10365 0.0168228,0.0073622 0.0355748,0.0113228 0.0547205,0.0118858 0.0200354,0.000586614 0.0402992,-0.00241339 0.0591811,-0.00899606 0.0446614,-0.0155669 0.0813031,-0.053874 0.0838386,-0.11487 0.0111339,-0.267748 0.0180079,-0.533228 0.0222402,-0.797307 0.00427953,-0.266843 0.00595669,-0.532677 0.00664567,-0.798146l0.106252 0 -0.106665 -0.000275591c0.000149606,-0.0589094 0.0480315,-0.106539 0.106941,-0.10639 0.00354724,7.87402e-006 0.00705118,0.00019685 0.0105079,0.000543307 0.0169724,0.000311024 0.0741299,0.000464567 0.133083,0.000464567 0.0660984,0 0.129957,-0.000192913 0.137484,-0.000582677l-1.5748e-005 -0.000232283c0.0587992,-0.00357087 0.109374,0.0412008 0.112945,0.1 0.000322835,0.00532283 0.000248031,0.0105748 -0.00019685,0.0157323 0.000637795,0.262402 0.00230315,0.52528 0.00648031,0.789055 0.00417717,0.264122 0.0109724,0.529614 0.0219331,0.797138 0.00250787,0.0609882 0.0390748,0.0992835 0.0836654,0.114843 0.0188976,0.00659449 0.0391575,0.0096063 0.0591693,0.00902756 0.0191732,-0.000555118 0.0379252,-0.00451181 0.0547362,-0.0118543 0.0349843,-0.0152874 0.0608898,-0.0496378 0.0586772,-0.103685 -0.0141417,-0.343791 -0.0409724,-0.721169 -0.0682598,-1.10508 -0.0450906,-0.634299 -0.0914606,-1.28659 -0.085248,-1.88625l0.106252 0.000834646 -0.106661 -0.0011063c0.000610236,-0.0589055 0.0488622,-0.106165 0.107768,-0.105555 0.0435157,0.000452756 0.0806732,0.0269055 0.096874,0.0644488 0.105768,0.203445 0.229878,0.389524 0.363283,0.516028 0.103724,0.0983583 0.210811,0.158587 0.31474,0.15698 0.112441,-0.00173622 0.213315,-0.0244803 0.306921,-0.0883701 0.0991811,-0.0677008 0.194161,-0.18235 0.290783,-0.366535 0.0511417,-0.0974724 0.0522559,-0.173256 0.0256614,-0.219965 -0.00845276,-0.0148465 -0.0203031,-0.0266614 -0.0343307,-0.0348583 -0.0143583,-0.00838976 -0.0306654,-0.0129961 -0.0476535,-0.0132244 -0.0512835,-0.000692913 -0.112035,0.0333228 -0.163098,0.112803 -0.0151654,0.0236024 -0.0229291,0.0361929 -0.0308543,0.0490512 -0.0862047,0.139846 -0.183972,0.298461 -0.369264,0.298461 -0.175055,0 -0.302657,-0.198673 -0.438189,-0.409693 -0.0912874,-0.142138 -0.186925,-0.291043 -0.281571,-0.356165 -0.0545945,-0.037563 -0.113535,-0.0700906 -0.178035,-0.0945157 -0.0636417,-0.0240984 -0.133197,-0.0403504 -0.210008,-0.0457835l0.0075 -0.106252 -0.00752756 0.106402c-0.00753937,-0.000531496 -0.0148386,-0.00184252 -0.0218307,-0.00383465zm-0.129492 -0.223508c0.0577913,-0.000732283 0.115787,0.0042874 0.171551,0.0150709 0.0961339,0.00730315 0.183906,0.0281063 0.264807,0.0587402 0.0814921,0.0308622 0.155555,0.0716772 0.22387,0.118681 0.130114,0.0895315 0.237453,0.256646 0.339902,0.416165 0.103,0.160366 0.199976,0.311354 0.259024,0.311354 0.067122,0 0.131591,-0.104583 0.188429,-0.196791 0.0135472,-0.0219764 0.0268425,-0.0435354 0.0325236,-0.0523819 0.0954488,-0.148563 0.226122,-0.211909 0.344768,-0.210307 0.0553701,0.000751969 0.107559,0.0152165 0.152654,0.041563 0.0454252,0.0265472 0.0840118,0.0651693 0.111827,0.114024 0.0591969,0.103969 0.0669213,0.253189 -0.0223307,0.423295 -0.11437,0.218012 -0.232067,0.357319 -0.359114,0.444039 -0.132622,0.0905197 -0.271567,0.122677 -0.424417,0.125039 -0.164988,0.00254724 -0.321323,-0.0801024 -0.463913,-0.215319 -0.0718622,-0.0681457 -0.140685,-0.150193 -0.20552,-0.241346 0.0109724,0.478555 0.0470906,0.986697 0.0824252,1.48378 0.0269606,0.379295 0.0534685,0.75213 0.0682598,1.11175 0.00640551,0.156283 -0.0756772,0.258724 -0.186181,0.307016 -0.0417126,0.0182244 -0.087563,0.0280118 -0.133902,0.0293583 -0.0455,0.00132283 -0.0916969,-0.00558268 -0.135004,-0.0206969 -0.120614,-0.0420945 -0.219476,-0.144677 -0.226169,-0.307346 -0.0108701,-0.265252 -0.0176732,-0.532969 -0.0219331,-0.802138 -0.00365354,-0.23072 -0.00538583,-0.462224 -0.00619291,-0.69402 -0.0124921,3.54331e-005 -0.0252874,5.51181e-005 -0.038,5.51181e-005 -0.0126969,0 -0.0254724,-1.9685e-005 -0.0379488,-5.51181e-005 -0.000854331,0.23178 -0.00261417,0.463205 -0.00631102,0.69385 -0.00431496,0.269106 -0.0112008,0.536831 -0.0222402,0.802307 -0.00676772,0.162728 -0.105701,0.265323 -0.226343,0.307374 -0.0433346,0.0151102 -0.0895433,0.0220039 -0.135016,0.0206654 -0.0463583,-0.0013622 -0.0922126,-0.0111575 -0.133886,-0.0293898 -0.110472,-0.0483307 -0.192484,-0.150772 -0.186016,-0.30698 0.0155197,-0.371169 0.038937,-0.733862 0.0623701,-1.09685 0.0279134,-0.432374 0.0558583,-0.865177 0.069878,-1.29844 -0.0105984,0.0952559 -0.0134016,0.182126 -0.0140472,0.237803 0.0124055,0.134988 -0.0511496,0.226575 -0.143764,0.27426 -0.0372008,0.0191535 -0.0787008,0.0302874 -0.121114,0.0334134 -0.0402205,0.00296457 -0.082315,-0.00147638 -0.123055,-0.0132953 -0.11615,-0.0336969 -0.218098,-0.126472 -0.233811,-0.277736 -0.0360945,-0.346433 0.056752,-0.750811 0.263811,-1.06371 0.181323,-0.274008 0.44974,-0.479992 0.796535,-0.522862 0.055248,-0.0125236 0.11398,-0.0191772 0.173594,-0.019937z"/>
  <path class="fil2" d="M4.5034 1.30065c0.261961,0 0.499988,0.103126 0.675752,0.271035 0.176087,0.168217 0.28952,0.401543 0.301764,0.661402l0.000106299 -7.87402e-006 1.1811e-005 0.000165354 0.000204724 -1.1811e-005 8.66142e-005 0.0017126 3.93701e-006 0 7.87402e-006 0.000271654c0.00261811,0.0579409 -0.0416614,0.107535 -0.0997913,0.111228 -0.00226772,0.000145669 -0.00451969,0.000208661 -0.00675984,0.000208661l0 7.87402e-006 -1.74277 0c-0.0589094,0 -0.106669,-0.0477598 -0.106669,-0.106669 0,-0.00167717 4.33071e-005,-0.00334252 0.00011811,-0.00499606l-7.87402e-006 0c0.000122047,-0.0033937 0.000405512,-0.00674409 0.000834646,-0.0100472 0.0142402,-0.256815 0.127272,-0.487165 0.301697,-0.653602 0.175756,-0.167709 0.41365,-0.270697 0.675409,-0.270697zm0.529083 0.425201c-0.13739,-0.131248 -0.323736,-0.211862 -0.529083,-0.211862 -0.205189,0 -0.391406,0.0804764 -0.52874,0.211524 -0.112654,0.107496 -0.192563,0.248933 -0.223264,0.407811l1.50398 0c-0.030685,-0.158752 -0.110453,-0.300055 -0.222898,-0.407472z"/>
  <path class="fil2" d="M3.53195 2.13332c-0.0589094,0 -0.106669,0.0477598 -0.106669,0.106669 0,0.0589094 0.0477598,0.106669 0.106669,0.106669l1.94289 0c0.0589094,0 0.106669,-0.0477598 0.106669,-0.106669 0,-0.0589094 -0.0477598,-0.106669 -0.106669,-0.106669l-1.94289 0z"/>
  <path class="fil2" d="M4.61291 1.25949l-0.228445 4.33071e-005 0 0.000413386c-0.0589094,7.87402e-006 -0.106677,-0.0477362 -0.106685,-0.106646 0,-0.00468504 0.00030315,-0.00929921 0.000889764,-0.0138228 0.00624803,-0.107106 0.0581024,-0.179965 0.123752,-0.216209 0.0310591,-0.0171457 0.0656142,-0.0257992 0.100776,-0.0259134 0.0345197,-0.000110236 0.0689331,0.0084252 0.100394,0.0256299 0.0678346,0.0371024 0.121094,0.113224 0.125004,0.226661l0.000366142 -1.1811e-005c0.00198819,0.058874 -0.0441299,0.10822 -0.103004,0.110209 -0.00440945,0.000149606 -0.00876378,1.9685e-005 -0.0130472,-0.000354331z"/>
  <path class="fil2" d="M4.61007 1.26854c0,-0.0589094 -0.0477598,-0.106669 -0.106669,-0.106669 -0.0589094,0 -0.106669,0.0477598 -0.106669,0.106669l0 0.138886c0,0.0589094 0.0477598,0.106669 0.106669,0.106669 0.0589094,0 0.106669,-0.0477598 0.106669,-0.106669l0 -0.138886z"/>
  <path class="fil1" d="M2.50287 0.834925c0.14776,0 0.281547,0.0599016 0.378394,0.156748 0.0968425,0.0968465 0.156748,0.230634 0.156748,0.378394 0,0.14776 -0.0599055,0.281547 -0.156748,0.378394 -0.0968465,0.0968425 -0.230634,0.156748 -0.378394,0.156748 -0.14776,0 -0.281547,-0.0599055 -0.378394,-0.156748 -0.0968465,-0.0968465 -0.156748,-0.230634 -0.156748,-0.378394 0,-0.14776 0.0599016,-0.281547 0.156748,-0.378394 0.0968465,-0.0968465 0.230634,-0.156748 0.378394,-0.156748zm0.227559 0.307583c-0.0582244,-0.0582244 -0.138685,-0.0942441 -0.227559,-0.0942441 -0.088874,0 -0.169335,0.0360197 -0.227559,0.0942441 -0.0582244,0.0582244 -0.0942441,0.138685 -0.0942441,0.227559 0,0.088874 0.0360197,0.169335 0.0942441,0.227559 0.0582283,0.0582244 0.138685,0.0942441 0.227559,0.0942441 0.088874,0 0.169331,-0.0360197 0.227559,-0.0942441 0.0582244,-0.0582283 0.0942441,-0.138685 0.0942441,-0.227559 0,-0.088874 -0.0360197,-0.169331 -0.0942441,-0.227559z"/>
 </g>
</svg>
