<?xml version="1.0" encoding="UTF-8"?>
<!DOCTYPE svg PUBLIC "-//W3C//DTD SVG 1.1//EN" "http://www.w3.org/Graphics/SVG/1.1/DTD/svg11.dtd">
<!-- Creator: CorelDRAW -->
<svg xmlns="http://www.w3.org/2000/svg" xml:space="preserve" width="6.82666in" height="6.82666in" style="shape-rendering:geometricPrecision; text-rendering:geometricPrecision; image-rendering:optimizeQuality; fill-rule:evenodd; clip-rule:evenodd"
viewBox="0 0 6.82666 6.82666"
 xmlns:xlink="http://www.w3.org/1999/xlink">
 <defs>
  <style type="text/css">
   <![CDATA[
    .fil0 {fill:none}
    .fil1 {fill:#212121;fill-rule:nonzero}
    .fil2 {fill:#66BB6A;fill-rule:nonzero}
   ]]>
  </style>
 </defs>
 <g id="Layer_x0020_1">
  <metadata id="CorelCorpID_0Corel-Layer"/>
  <rect class="fil0" width="6.82666" height="6.82666"/>
  <path class="fil1" d="M3.41333 0.853331c0.706909,0 1.34691,0.286543 1.81019,0.749815 0.463272,0.463272 0.749815,1.10328 0.749815,1.81019 0,0.706909 -0.286543,1.34691 -0.749815,1.81019 -0.463272,0.463272 -1.10328,0.749815 -1.81019,0.749815 -0.706909,0 -1.34691,-0.286543 -1.81019,-0.749815 -0.463272,-0.463272 -0.749815,-1.10328 -0.749815,-1.81019 0,-0.706906 0.286543,-1.34691 0.749815,-1.81019 0.463272,-0.463272 1.10328,-0.749815 1.81019,-0.749815zm1.65935 0.90065c-0.424654,-0.424654 -1.01133,-0.687311 -1.65935,-0.687311 -0.648024,0 -1.2347,0.262657 -1.65935,0.687311 -0.424654,0.424654 -0.687311,1.01133 -0.687311,1.65935 0,0.64802 0.262657,1.2347 0.687311,1.65935 0.424654,0.424654 1.01133,0.687311 1.65935,0.687311 0.648024,0 1.2347,-0.262657 1.65935,-0.687311 0.424654,-0.424654 0.687311,-1.01133 0.687311,-1.65935 0,-0.648024 -0.262657,-1.2347 -0.687311,-1.65935z"/>
  <polygon class="fil1" points="2.04136,2.22233 2.0525,2.24626 2.05241,2.24587 2.04142,2.22232 "/>
  <polygon class="fil1" points="2.04136,2.22233 2.04142,2.22232 2.00839,2.15151 "/>
  <path class="fil2" d="M2.2532 4.19624c0.023378,-0.0428386 0.0440433,-0.0911102 0.0620906,-0.142177 0.0585591,-0.165677 0.0868346,-0.354709 0.0919606,-0.492063 0.00448425,-0.119724 -0.00202362,-0.238886 -0.00876772,-0.362398 -0.00993701,-0.18202 -0.0203661,-0.37315 0.00116535,-0.600217 -0.0544449,-0.00103543 -0.109543,-0.00902362 -0.16252,-0.022626 -0.108602,-0.027878 -0.211035,-0.0801614 -0.282366,-0.14485l0.071252 -0.078752 -0.0716575 0.0790157c-0.00170472,-0.00154331 -0.00333858,-0.0031378 -0.00491732,-0.00476378 -0.052563,-0.048626 -0.0940276,-0.102382 -0.107051,-0.160327 -0.0193268,-0.0860039 0.0107008,-0.160764 0.120933,-0.212205l-1.5748e-005 -3.54331e-005c0.00269685,-0.00125591 0.00542126,-0.00238583 0.00816142,-0.00340157 0.132626,-0.0633661 0.309543,-0.182858 0.392102,-0.238811 0.00225984,-0.0936181 0.017874,-0.26574 0.10022,-0.309587l0.05 0.093752 -0.0501339 -0.0941535c0.0381929,-0.0203346 0.083185,-0.0151024 0.115358,0.00971654 0.0169646,0.0113819 0.0649252,0.044063 0.114075,0.0821811 0.0387362,-0.0696772 0.0851811,-0.148787 0.109831,-0.174563l0.0770827 0.0733346 -0.0770906 -0.0737244c0.036563,-0.0382323 0.0947402,-0.0433386 0.137059,-0.0145 0.0537087,0.0338346 0.109437,0.107465 0.141819,0.214752 0.0213386,0.0707165 0.0342008,0.15935 0.0306024,0.26402 0.0504764,0.101906 0.233083,0.487252 0.290886,0.840354 0.0876063,0.021185 0.168264,0.0475906 0.242252,0.0796969l-0.164783 0.164783c-0.0587559,-0.0203661 -0.122272,-0.0373346 -0.190724,-0.0511654 -0.0457362,-0.00779921 -0.0826969,-0.0450512 -0.0880394,-0.0934646l0.106024 -0.0117008 -0.105835 0.0116654c-0.040122,-0.36352 -0.259496,-0.804669 -0.288764,-0.862256 -0.0108346,-0.0179252 -0.0165236,-0.0392165 -0.0151299,-0.0617087l0.000228346 1.5748e-005c0.00513386,-0.0832402 -0.00262598,-0.152307 -0.0172402,-0.206626 -0.0283937,0.0519921 -0.0549567,0.10274 -0.0617047,0.115673 -0.011315,0.0237008 -0.0313465,0.0432953 -0.0577756,0.0535118 -0.0549449,0.0212402 -0.116717,-0.00608268 -0.137957,-0.0610276l0.0994921 -0.0384646 -0.0991654 0.0383346c-0.000814961,-0.0021063 -0.0263583,-0.0199646 -0.0573465,-0.0410551 0.00265748,0.0325827 0.00605906,0.0685236 0.008,0.0886142 0.00979134,0.0498268 -0.0172441,0.101004 -0.066252,0.119945l-0.000125984 -0.000326772c-0.00823228,0.0031811 -0.00344094,0.00472441 -0.021878,0.0172205 -0.0846929,0.0574016 -0.27315,0.18513 -0.421685,0.256445 0.00741732,0.00818898 0.0171496,0.0177008 0.0283031,0.0279606 0.00152756,0.00124016 0.00302756,0.00252362 0.0045,0.00385827l-0.000125984 0.000141732 0.000133858 0.000122047 -0.000185039 0.000204724c0.0464646,0.0420472 0.116165,0.076811 0.192138,0.096315 0.0670118,0.0172047 0.136748,0.0219173 0.196835,0.00844488 0.0155236,-0.00534646 0.0325197,-0.00717323 0.0498858,-0.00466535 0.0583031,0.00841732 0.0987402,0.0625157 0.0903228,0.120819l-0.000185039 -2.75591e-005c-0.0387126,0.268213 -0.0267717,0.486886 -0.0155039,0.693272 0.00695276,0.127307 0.0136575,0.250138 0.00876772,0.380736 -0.00318898,0.085374 -0.0142559,0.188319 -0.0345315,0.294713l-0.332024 0.332024z"/>
  <path class="fil2" d="M5.21787 3.99431c0.0472008,0.203051 0.0407087,0.361024 -0.00281496,0.481787 -0.0312441,0.0866929 -0.0808071,0.153787 -0.143299,0.20424 -0.0609488,0.0492047 -0.132992,0.0815197 -0.211303,0.10002 -0.181622,0.0429055 -0.401059,0.00986614 -0.58589,-0.0567559 -0.0707756,-0.0254961 -0.135937,-0.0553031 -0.191583,-0.0871457 -0.0234094,-0.0133976 -0.0455906,-0.0273858 -0.0662913,-0.0418189 -0.0631811,0.0602244 -0.157398,0.138189 -0.237748,0.156378l7.08661e-005 0.000318898c-0.00544488,0.00122835 -0.0108858,0.00201969 -0.0162874,0.00238976 -0.156354,0.0215236 -0.890626,0.0071811 -0.892819,0.0071378l0.00166535 -0.106252 -0.00205512 0.106646c-0.029437,-0.000566929 -0.0558583,-0.0130079 -0.0747835,-0.0326654 -0.0527559,-0.0479646 -0.363303,-0.35248 0.151358,-0.441563 -0.0160157,-0.0407244 -0.0316732,-0.0876614 -0.0429252,-0.137378l0.206102 -0.206102c-0.000673228,0.00329921 -0.00150394,0.00658661 -0.00250394,0.00987008l-0.000405512 -0.000122047c-0.0397362,0.130677 0.0684646,0.328311 0.0881417,0.362626 0.00998425,0.0148819 0.0163583,0.0324803 0.017748,0.0516299 0.00426772,0.058752 -0.0399016,0.10985 -0.0986535,0.114118l-0.00773228 -0.106386 0.0075 0.106252c-0.161697,0.011752 -0.189075,0.0445472 -0.186539,0.0677756 0.171961,0.00290157 0.704803,0.0105197 0.799535,-0.00462992 0.0018622,-0.000527559 0.00374803,-0.00100787 0.00566142,-0.00144094l8.66142e-005 0.000389764 9.05512e-005 -1.5748e-005 -1.5748e-005 -7.87402e-005c0.059189,-0.0133661 0.165917,-0.12898 0.190882,-0.15676 0.0028937,-0.00384646 0.0060748,-0.00755118 0.00955906,-0.0110669 0.0414567,-0.0418504 0.108996,-0.0421693 0.150846,-0.000712598l-0.0750669 0.0757795 0.075 -0.0754173c0.0251142,0.024878 0.0612953,0.0508504 0.105413,0.0760984 0.047378,0.0271102 0.100969,0.051811 0.157417,0.0721457 0.150878,0.0543819 0.326315,0.0822244 0.46589,0.049252 0.0483976,-0.0114331 0.0916181,-0.0303504 0.126303,-0.0583504 0.0331378,-0.0267559 0.059622,-0.062878 0.0766299,-0.110075 0.0192402,-0.053378 0.0271969,-0.120764 0.020685,-0.204437 -0.0914252,0.0563228 -0.193669,0.103083 -0.299114,0.134165 -0.152091,0.0448346 -0.312283,0.0576732 -0.459425,0.0210748 -0.0487638,-0.0121142 -0.0940197,-0.0325118 -0.129449,-0.0654843 -0.0421339,-0.0392126 -0.0676575,-0.091189 -0.0667362,-0.15998 0.00515354,-0.385016 -0.0516417,-0.663634 -0.181508,-0.856969 -0.0159921,-0.0238071 -0.0332165,-0.0463898 -0.051685,-0.0678071l0.150839 -0.150839c0.0277717,0.0313189 0.0536024,0.0647165 0.0775157,0.100315 0.155071,0.230862 0.223091,0.548504 0.217343,0.977803 -1.9685e-005,0.00164961 -0.00122047,0.00122047 -0.000767717,0.00164173 0.00625197,0.0058189 0.0191575,0.0106457 0.0352835,0.0146496 0.108319,0.0269409 0.230291,0.0162992 0.348591,-0.0185709 0.137429,-0.0405118 0.268,-0.11302 0.367063,-0.197783l0.0691654 0.0808346 -0.0693465 -0.0810472c0.0447598,-0.0382953 0.112098,-0.0330591 0.150394,0.0117008 0.0128228,0.0149843 0.0207559,0.0325079 0.0239685,0.0506142z"/>
  <path class="fil1" d="M5.19269 1.70927c0.0416496,-0.0416496 0.00345669,-0.0709882 -0.0381929,-0.112638 -0.0416496,-0.0416496 -0.0709921,-0.0798465 -0.112642,-0.0381969l-3.46954 3.46954c-0.0416496,0.0416496 -0.0173465,0.0848819 0.0243031,0.126531 0.0416496,0.0416496 0.0848819,0.0659528 0.126531,0.0243031l3.46954 -3.46954z"/>
 </g>
</svg>
