<?xml version="1.0" encoding="UTF-8"?>
<!DOCTYPE svg PUBLIC "-//W3C//DTD SVG 1.1//EN" "http://www.w3.org/Graphics/SVG/1.1/DTD/svg11.dtd">
<!-- Creator: CorelDRAW -->
<svg xmlns="http://www.w3.org/2000/svg" xml:space="preserve" width="6.82666in" height="6.82666in" style="shape-rendering:geometricPrecision; text-rendering:geometricPrecision; image-rendering:optimizeQuality; fill-rule:evenodd; clip-rule:evenodd"
viewBox="0 0 6.82666 6.82666"
 xmlns:xlink="http://www.w3.org/1999/xlink">
 <defs>
  <style type="text/css">
   <![CDATA[
    .fil0 {fill:none}
    .fil1 {fill:#212121;fill-rule:nonzero}
    .fil2 {fill:#66BB6A;fill-rule:nonzero}
   ]]>
  </style>
 </defs>
 <g id="Layer_x0020_1">
  <metadata id="CorelCorpID_0Corel-Layer"/>
  <rect class="fil0" width="6.82666" height="6.82666"/>
  <path class="fil1" d="M5.93542 4.80177c0.0707913,0.30285 0.0620118,0.536303 -0.00162992,0.71287 -0.0442953,0.122909 -0.114417,0.217913 -0.202776,0.289248 -0.086815,0.0700866 -0.190031,0.116252 -0.302606,0.14285 -0.268496,0.0634291 -0.594717,0.0139213 -0.87035,-0.0854252 -0.105177,-0.0378937 -0.202457,-0.082437 -0.285969,-0.130228 -0.0496339,-0.0284016 -0.0953346,-0.0584291 -0.135965,-0.0894134 -0.0896299,0.0899764 -0.246429,0.231043 -0.373827,0.259862l7.08661e-005 0.000318898c-0.00472835,0.00106693 -0.00945276,0.00179528 -0.0141535,0.00221654 -0.210579,0.0339606 -1.36967,0.0113425 -1.37309,0.0112756l0.00166535 -0.106252 -0.00205906 0.106646c-0.0292874,-0.000562992 -0.0555827,-0.0128819 -0.0744882,-0.0323661 -0.0625787,-0.0563268 -0.508827,-0.484906 0.273272,-0.594539 -0.0586299,-0.131343 -0.128957,-0.333071 -0.114654,-0.5215l-0.0238543 -0.00414961c-0.131102,0.213811 -0.567264,0.914551 -0.764571,1.10044l0.000177165 0.000188976c-0.0222717,0.0209764 -0.051189,0.0305118 -0.0794961,0.0288268l-0.447051 0.011063 7.87402e-006 0.000385827c-0.0260906,0.000645669 -0.0502244,-0.0081378 -0.0691417,-0.0232441 -0.0553701,-0.0404606 -0.197236,-0.194642 0.222398,-0.527283l0.066252 0.0833346 -0.0662598 -0.0835906c0.0023622,-0.00187008 0.00477953,-0.00361811 0.00724409,-0.00525984 0.114709,-0.0943661 0.203539,-0.258909 0.269378,-0.445177 0.0922402,-0.260972 0.136776,-0.558843 0.144858,-0.775354 0.00701969,-0.187421 -0.00306299,-0.372028 -0.0135118,-0.563374 -0.00655512,-0.120059 -0.013252,-0.242713 -0.0161142,-0.371177 0.0418898,0.0117205 0.0877008,0.0107913 0.131465,-0.00556299 0.0269921,-0.0100866 0.0539213,-0.0204646 0.0807756,-0.0311417 0.00223622,0.137917 0.00938583,0.269004 0.016378,0.397047 0.0106575,0.195146 0.020937,0.383413 0.0135118,0.581713 -0.00875591,0.234472 -0.0568819,0.556768 -0.156528,0.838685 -0.0775276,0.219343 -0.187461,0.417291 -0.336669,0.539516 -0.00260236,0.00253543 -0.00535827,0.00496063 -0.00826772,0.00726772l-0.000125984 -0.000161417c-0.133642,0.105937 -0.192724,0.150425 -0.218846,0.169098l0.341008 -0.00844094c0.21848,-0.234031 0.695791,-1.01939 0.735874,-1.08557 0.0211299,-0.0394409 0.0658189,-0.0627756 0.112311,-0.054689l-2.75591e-005 0.000149606 0.19439 0.033811c0.00624016,0.00073622 0.0124961,0.00203937 0.0187165,0.00393701 0.0563425,0.0171969 0.0880748,0.0768189 0.070878,0.133161l-0.000405512 -0.000125984c-0.0682598,0.224087 0.108012,0.547587 0.140413,0.604201 0.011378,0.0155787 0.0186732,0.0344331 0.0201732,0.0550906 0.00426772,0.058752 -0.0399016,0.10985 -0.0986535,0.114118l-0.00773228 -0.106386 0.0075 0.106252c-0.425024,0.0308898 -0.367587,0.162949 -0.322764,0.21872 0.213138,0.00376378 1.13508,0.0183346 1.2864,-0.00822441 0.00211024,-0.000614173 0.00424803,-0.00117323 0.00642126,-0.00166535l8.66142e-005 0.000389764 9.05512e-005 -1.5748e-005 -1.5748e-005 -7.87402e-005c0.109681,-0.0247677 0.292079,-0.223295 0.327386,-0.262665 0.0029685,-0.00398819 0.00624409,-0.00781496 0.00984252,-0.0114488 0.0414567,-0.0418504 0.109,-0.0421732 0.15085,-0.000716535l-0.0750669 0.0757835 0.075 -0.0754173c0.0425315,0.0421299 0.10235,0.0852795 0.174374,0.126496 0.075248,0.043063 0.160949,0.0824961 0.251803,0.115228 0.241677,0.0871063 0.523902,0.131417 0.75035,0.0779213 0.0826654,-0.0195315 0.157055,-0.0522992 0.217606,-0.101181 0.0590039,-0.0476339 0.106047,-0.111669 0.136106,-0.195083 0.0393425,-0.109161 0.0507874,-0.251496 0.0245591,-0.433457 -0.154913,0.106488 -0.335984,0.195173 -0.523909,0.250571 -0.225217,0.0663898 -0.46172,0.0855748 -0.677949,0.0317953 -0.0663189,-0.0164724 -0.127303,-0.0436969 -0.174004,-0.0871575 -0.0534134,-0.0497087 -0.085752,-0.115846 -0.0845748,-0.203689 0.00810236,-0.605252 -0.0824449,-1.04512 -0.289382,-1.35319 -0.201969,-0.300669 -0.522004,-0.480618 -0.977189,-0.572319 -0.0457441,-0.00779528 -0.0827087,-0.0450512 -0.0880512,-0.0934685l0.106024 -0.0117008 -0.105835 0.0116654c-0.0139331,-0.126232 -0.0415748,-0.258276 -0.0766535,-0.388343 0.0585197,-0.048563 0.120173,-0.103303 0.175437,-0.159488 0.0441024,0.147165 0.0812008,0.299799 0.102913,0.447626 0.474189,0.107823 0.815043,0.312768 1.04002,0.647697 0.232138,0.345587 0.333913,0.824488 0.325217,1.47402 -0.000275591,0.0207047 0.00625591,0.0352874 0.0170709,0.0453504 0.0175276,0.016311 0.0461575,0.0279567 0.0798386,0.0363228 0.177409,0.044126 0.375689,0.0271378 0.567114,-0.0292913 0.21961,-0.0647362 0.428339,-0.180673 0.586795,-0.316256l-0.000185039 -0.000212598c0.0447598,-0.0382992 0.112098,-0.033063 0.150398,0.0116969 0.0128228,0.0149882 0.0207598,0.0325118 0.0239724,0.050622zm-4.23883 -2.02274c0.00399606,-0.0632362 0.00951575,-0.128224 0.0169094,-0.19526 -0.0991772,0.00512205 -0.202004,-0.00692913 -0.300114,-0.0321181 -0.158551,-0.0407087 -0.307563,-0.116547 -0.410756,-0.210134l0.071252 -0.078752 -0.0716575 0.0790118c-0.00165354,-0.0015 -0.00324409,-0.00304724 -0.00478346,-0.00462598 -0.0745236,-0.0684803 -0.133106,-0.142669 -0.150406,-0.219657 -0.0235827,-0.104902 0.0150236,-0.196984 0.154638,-0.262087l-1.5748e-005 -3.54331e-005c0.00283465,-0.00132283 0.00570472,-0.0025 0.00858661,-0.00355512 0.0583504,-0.0272638 0.150272,-0.0703583 0.272472,-0.128098 0.0717835,-0.0339213 0.138394,-0.0656969 0.181591,-0.0869528 0.0295,-0.0649094 0.0980945,-0.186335 0.22428,-0.264433 -0.0147598,-0.113492 -0.0227008,-0.310433 0.0869094,-0.368803l0.05 0.093752 -0.0501339 -0.0941496c0.0380906,-0.0202835 0.0829449,-0.015126 0.115098,0.00952362 0.0219252,0.0146299 0.0986614,0.066437 0.175709,0.125461 0.0165039,-0.102083 0.0427992,-0.211791 0.0827165,-0.253535l0.0770827 0.0733346 -0.0770906 -0.0737244c0.0359134,-0.0375512 0.0926732,-0.0431457 0.134783,-0.0160079 0.0706772,0.0405984 0.213902,0.14198 0.309709,0.307976 0.0586772,0.101669 0.0996299,0.22665 0.0961417,0.375354 0.0308661,0.0616496 0.112996,0.230417 0.200531,0.449756 -0.0348386,0.0131063 -0.0666772,0.0354764 -0.0914685,0.0666693 -0.022374,0.0281535 -0.048815,0.0568622 -0.077252,0.0851102 -0.105358,-0.274469 -0.210969,-0.484638 -0.230606,-0.523098 -0.0108661,-0.0179449 -0.0165748,-0.0392638 -0.0151772,-0.0617874l0.000228346 1.5748e-005c0.00706693,-0.115028 -0.0226772,-0.210146 -0.066563,-0.286185 -0.037815,-0.0655197 -0.0860748,-0.11765 -0.130917,-0.156646 -0.012874,0.0852598 -0.0212835,0.200276 -0.0232323,0.228461 -9.05512e-005,0.0427087 -0.0259961,0.0829764 -0.0682244,0.0992992 -0.0549449,0.0212402 -0.116717,-0.00608268 -0.137957,-0.0610276l0.0994921 -0.0384646 -0.0991654 0.0383346c-0.00556693,-0.0144016 -0.0923425,-0.0765 -0.16826,-0.128772 0.0086063,0.0507874 0.0221102,0.113618 0.0271614,0.136717 0.0167835,0.0532244 -0.0104685,0.111039 -0.0632441,0.131465l-0.0385079 -0.0994724 0.0383346 0.0991654c-0.130575,0.0505472 -0.184866,0.185705 -0.194244,0.211673 -0.00764567,0.0274961 -0.0262323,0.051874 -0.0535472,0.0660787l-0.0492165 -0.0946339 0.0491654 0.0945827c-0.0311614,0.0162047 -0.121472,0.0593543 -0.223291,0.107469 -0.0666102,0.0314724 -0.183969,0.0863701 -0.273374,0.12813 -0.00270866,0.00156693 -0.0055,0.00302756 -0.00838583,0.00437402l-0.0450669 -0.0966772 0.045 0.0966654c-0.0275551,0.0128465 -0.0377756,0.0194803 -0.037185,0.0221102 0.00629528,0.0280039 0.0407047,0.0670472 0.0864921,0.109067 0.00152756,0.00124016 0.0030315,0.00252362 0.00450787,0.0038622l-0.000125984 0.000137795 0.000133858 0.000122047 -0.000185039 0.000204724c0.078315,0.0709409 0.194602,0.129268 0.320528,0.161598 0.113504,0.0291417 0.232594,0.0365079 0.33578,0.0120866 0.0156496,-0.0054685 0.0328071,-0.0073622 0.0503465,-0.00483071 0.0583031,0.00841732 0.0987402,0.0625157 0.0903228,0.120819l-0.000185039 -2.75591e-005c-0.0105709,0.0732244 -0.0187205,0.144039 -0.0248858,0.212764 -0.0727953,0.0333228 -0.146528,0.0641063 -0.220677,0.0924016z"/>
  <path class="fil2" d="M3.04876 2.2668c0.0365866,-0.0460236 0.0289409,-0.113 -0.0170827,-0.149587 -0.0460236,-0.0365866 -0.113,-0.0289409 -0.149587,0.0170827 -0.00101969,0.00128346 -0.348016,0.444665 -1.17294,0.754012 -0.0549961,0.0204764 -0.0829764,0.0816693 -0.0625,0.136665 0.0204764,0.0549961 0.0816693,0.0829764 0.136665,0.0625 0.881736,-0.33065 1.26432,-0.81926 1.26544,-0.820673z"/>
 </g>
</svg>
