<?xml version="1.0" encoding="UTF-8"?>
<!DOCTYPE svg PUBLIC "-//W3C//DTD SVG 1.1//EN" "http://www.w3.org/Graphics/SVG/1.1/DTD/svg11.dtd">
<!-- Creator: CorelDRAW -->
<svg xmlns="http://www.w3.org/2000/svg" xml:space="preserve" width="6.82666in" height="6.82666in" style="shape-rendering:geometricPrecision; text-rendering:geometricPrecision; image-rendering:optimizeQuality; fill-rule:evenodd; clip-rule:evenodd"
viewBox="0 0 6.82666 6.82666"
 xmlns:xlink="http://www.w3.org/1999/xlink">
 <defs>
  <style type="text/css">
   <![CDATA[
    .fil0 {fill:none}
    .fil1 {fill:#212121;fill-rule:nonzero}
    .fil2 {fill:#66BB6A;fill-rule:nonzero}
   ]]>
  </style>
 </defs>
 <g id="Layer_x0020_1">
  <metadata id="CorelCorpID_0Corel-Layer"/>
  <rect class="fil0" width="6.82666" height="6.82666"/>
  <path class="fil1" d="M3.41333 2.39396c0.65687,0 1.25352,0.258394 1.69393,0.679122 0.44239,0.422614 0.726976,1.00912 0.756433,1.66211l0.000318898 -1.5748e-005 5.51181e-005 0.00162598 7.87402e-006 0 2.3622e-005 0.000948819 3.93701e-006 0.000279528c0.00142913,0.0583268 -0.0443346,0.107102 -0.102795,0.109201 -0.00128346,4.72441e-005 -0.00255906,6.29921e-005 -0.00383071,6.29921e-005l0 7.87402e-006 -4.68829 0c-0.0589094,0 -0.106669,-0.0477598 -0.106669,-0.106669 0,-0.00247638 8.66142e-005,-0.00493307 0.000255906,-0.00737008l-5.11811e-005 -3.93701e-006c0.000125984,-0.0032874 0.000409449,-0.00652756 0.000822835,-0.00972835 0.0323504,-0.648835 0.316524,-1.23124 0.756795,-1.65136 0.440346,-0.420189 1.03662,-0.678213 1.69299,-0.678213zm1.54726 0.833287c-0.402031,-0.384067 -0.947004,-0.619949 -1.54726,-0.619949 -0.599803,0 -1.1444,0.235512 -1.54632,0.619039 -0.379346,0.361984 -0.631787,0.855709 -0.683854,1.40763l4.46035 0c-0.0520472,-0.551508 -0.304118,-1.04486 -0.682909,-1.40672z"/>
  <path class="fil2" d="M0.799996 5.0004c-0.0589094,0 -0.106669,0.0477598 -0.106669,0.106669 0,0.0589094 0.0477598,0.106669 0.106669,0.106669l5.22667 0c0.0589094,0 0.106669,-0.0477598 0.106669,-0.106669 0,-0.0589094 -0.0477598,-0.106669 -0.106669,-0.106669l-5.22667 0z"/>
  <path class="fil2" d="M3.41333 1.61291c0.12035,0 0.227622,0.0605197 0.30498,0.159059 0.0710039,0.0904331 0.116642,0.214677 0.121272,0.35187l0 2.75591e-005 0.000362205 -1.1811e-005c0.00189764,0.058878 -0.0442913,0.108154 -0.103169,0.110051 -0.00114961,3.54331e-005 -0.00229921,5.11811e-005 -0.00344094,5.11811e-005l0 7.87402e-006 -0.640008 0c-0.0589094,0 -0.106669,-0.0477598 -0.106669,-0.106669 0,-0.00114173 2.3622e-005,-0.00227165 5.90551e-005,-0.00340551l-3.93701e-006 0c9.44882e-005,-0.00359449 0.000370079,-0.00713386 0.000807087,-0.0106299 0.00658268,-0.133122 0.0517244,-0.25337 0.120957,-0.341457 0.077374,-0.0984409 0.184598,-0.158894 0.304854,-0.158894zm0.137476 0.290728c-0.0376378,-0.0479409 -0.0862165,-0.0773898 -0.137476,-0.0773898 -0.0512165,0 -0.099748,0.0293819 -0.13735,0.0772244 -0.0253976,0.032315 -0.0456496,0.0721772 -0.0589488,0.117154l0.392591 0c-0.0132756,-0.0449173 -0.0334803,-0.0847205 -0.058815,-0.116988z"/>
  <path class="fil2" d="M3.52 2.1273c0,-0.0589094 -0.0477598,-0.106669 -0.106669,-0.106669 -0.0589094,0 -0.106669,0.0477598 -0.106669,0.106669l0 0.16224c0.0354528,-0.00146063 0.0710118,-0.00224409 0.106669,-0.00224409 0.0356575,0 0.0712126,0.000783465 0.106669,0.00224409l0 -0.16224z"/>
 </g>
</svg>
