<?xml version="1.0" encoding="UTF-8"?>
<!DOCTYPE svg PUBLIC "-//W3C//DTD SVG 1.1//EN" "http://www.w3.org/Graphics/SVG/1.1/DTD/svg11.dtd">
<!-- Creator: CorelDRAW -->
<svg xmlns="http://www.w3.org/2000/svg" xml:space="preserve" width="6.82666in" height="6.82666in" style="shape-rendering:geometricPrecision; text-rendering:geometricPrecision; image-rendering:optimizeQuality; fill-rule:evenodd; clip-rule:evenodd"
viewBox="0 0 6.82666 6.82666"
 xmlns:xlink="http://www.w3.org/1999/xlink">
 <defs>
  <style type="text/css">
   <![CDATA[
    .fil2 {fill:none}
    .fil0 {fill:#212121;fill-rule:nonzero}
    .fil1 {fill:#66BB6A;fill-rule:nonzero}
   ]]>
  </style>
 </defs>
 <g id="Layer_x0020_1">
  <metadata id="CorelCorpID_0Corel-Layer"/>
  <path class="fil0" d="M0.847917 3.8166c-0.0589094,0 -0.106669,0.0477598 -0.106669,0.106669 0,0.0589094 0.0477598,0.106669 0.106669,0.106669l3.45416 0c0.0589094,0 0.106669,-0.0477598 0.106669,-0.106669 0,-0.0589094 -0.0477598,-0.106669 -0.106669,-0.106669l-3.45416 0z"/>
  <path class="fil0" d="M5.18725 3.34324c0.045563,-0.0370472 0.0524646,-0.10402 0.0154173,-0.149583 -0.0370472,-0.045563 -0.10402,-0.0524646 -0.149583,-0.0154173l-0.818091 0.662524c-0.045563,0.0370472 -0.0524646,0.10402 -0.0154173,0.149583 0.0370472,0.045563 0.10402,0.0524646 0.149583,0.0154173l0.818091 -0.662524z"/>
  <path class="fil0" d="M0.847917 4.42666c-0.0589094,0 -0.106669,0.0477598 -0.106669,0.106669 0,0.0589094 0.0477598,0.106669 0.106669,0.106669l3.81283 0c0.0302559,0 0.057563,-0.0126024 0.0769764,-0.0328346l1.3131 -1.20702c0.0432598,-0.0398071 0.0460591,-0.107157 0.00625197,-0.150417 -0.0398071,-0.0432598 -0.107157,-0.0460591 -0.150417,-0.00625197l-1.28717 1.18318 -3.77157 0z"/>
  <path class="fil0" d="M4.56689 3.61459c0,0.0294528 0.0238819,0.0533346 0.0533346,0.0533346 0.0294528,0 0.0533346,-0.0238819 0.0533346,-0.0533346l0 -0.87652c0,-0.0477677 0.0195827,-0.0912402 0.051126,-0.122783 0.0315433,-0.0315433 0.0750157,-0.051126 0.122783,-0.051126 0.0477677,0 0.0912441,0.0195827 0.122787,0.051126 0.0315394,0.0315433 0.051126,0.0750157 0.051126,0.122783 0,0.0294528 0.0238819,0.0533346 0.0533346,0.0533346 0.0294528,0 0.0533346,-0.0238819 0.0533346,-0.0533346 0,-0.0772087 -0.0315551,-0.147374 -0.082378,-0.198201 -0.0508268,-0.0508268 -0.120992,-0.082378 -0.198205,-0.082378 -0.0772126,0 -0.147374,0.0315512 -0.198201,0.082378 -0.0508268,0.0508268 -0.082378,0.120988 -0.082378,0.198201l0 0.87652z"/>
  <path class="fil0" d="M4.85877 3.39709c0,0.0294528 0.0238819,0.0533346 0.0533346,0.0533346 0.0294528,0 0.0533346,-0.0238819 0.0533346,-0.0533346l0 -0.87652c0,-0.0477677 0.0195827,-0.0912402 0.051126,-0.122783 0.0315433,-0.0315433 0.0750157,-0.051126 0.122783,-0.051126 0.0477677,0 0.0912441,0.0195827 0.122787,0.051126 0.0315394,0.0315433 0.051126,0.0750157 0.051126,0.122783 0,0.0294528 0.0238819,0.0533346 0.0533346,0.0533346 0.0294528,0 0.0533346,-0.0238819 0.0533346,-0.0533346 0,-0.0772087 -0.0315551,-0.147374 -0.082378,-0.198201 -0.0508268,-0.0508268 -0.120992,-0.082378 -0.198205,-0.082378 -0.0772126,0 -0.147374,0.0315512 -0.198201,0.082378 -0.0508268,0.0508268 -0.082378,0.120988 -0.082378,0.198201l0 0.87652z"/>
  <path class="fil0" d="M4.92215 3.14743c0.0225512,-0.0188661 0.0255354,-0.0524488 0.00666929,-0.075 -0.0188661,-0.0225512 -0.0524488,-0.0255354 -0.075,-0.00666929l-0.26776 0.22372c-0.0225512,0.0188661 -0.0255354,0.0524488 -0.00666929,0.075 0.0188661,0.0225512 0.0524488,0.0255354 0.075,0.00666929l0.26776 -0.22372z"/>
  <path class="fil0" d="M4.93733 2.8997c0.0225512,-0.0188661 0.0255354,-0.0524488 0.00666929,-0.075 -0.0188661,-0.0225512 -0.0524488,-0.0255354 -0.075,-0.00666929l-0.267764 0.223717c-0.0225512,0.0188661 -0.0255354,0.0524488 -0.00666929,0.075 0.0188661,0.0225512 0.0524488,0.0255354 0.075,0.00666929l0.267764 -0.223717z"/>
  <path class="fil1" d="M1.28781 3.31161c0,-0.0294528 -0.0238819,-0.0533346 -0.0533346,-0.0533346 -0.0294528,0 -0.0533346,0.0238819 -0.0533346,0.0533346 0,0.0781535 0.031689,0.148921 0.0829094,0.200142 0.0512205,0.0512165 0.121988,0.0829055 0.200142,0.0829055 0.0781535,0 0.148917,-0.031685 0.200138,-0.0829055 0.0512205,-0.0512205 0.0829094,-0.121988 0.0829094,-0.200142 0,-0.0294528 -0.0238819,-0.0533346 -0.0533346,-0.0533346 -0.0294528,0 -0.0533346,0.0238819 -0.0533346,0.0533346 0,0.0487087 -0.0197441,0.092811 -0.0516575,0.124724 -0.0319094,0.0319094 -0.0760118,0.0516535 -0.12472,0.0516535 -0.0487087,0 -0.092811,-0.0197441 -0.124724,-0.0516535 -0.0319134,-0.0319134 -0.0516575,-0.0760157 -0.0516575,-0.124724z"/>
  <path class="fil1" d="M2.20667 3.31161c0,-0.0294528 -0.0238819,-0.0533346 -0.0533346,-0.0533346 -0.0294528,0 -0.0533346,0.0238819 -0.0533346,0.0533346 0,0.0487087 -0.0197441,0.092811 -0.0516535,0.124724 -0.0319134,0.0319094 -0.0760157,0.0516535 -0.124724,0.0516535 -0.0487087,0 -0.092811,-0.0197441 -0.124724,-0.0516535 -0.0319094,-0.0319134 -0.0516535,-0.0760157 -0.0516535,-0.124724 0,-0.0294528 -0.0238819,-0.0533346 -0.0533346,-0.0533346 -0.0294528,0 -0.0533346,0.0238819 -0.0533346,0.0533346 0,0.0781496 0.031685,0.148917 0.0829055,0.200142 0.0512205,0.0512165 0.121988,0.0829055 0.200142,0.0829055 0.0781535,0 0.148921,-0.031689 0.200142,-0.0829055 0.0512205,-0.0512244 0.0829055,-0.121992 0.0829055,-0.200142z"/>
  <path class="fil1" d="M2.6661 3.31161c0,-0.0294528 -0.0238819,-0.0533346 -0.0533346,-0.0533346 -0.0294528,0 -0.0533346,0.0238819 -0.0533346,0.0533346 0,0.0487087 -0.019748,0.092811 -0.0516575,0.12472 -0.0319134,0.0319134 -0.0760157,0.0516575 -0.124724,0.0516575 -0.0487087,0 -0.092811,-0.0197441 -0.124724,-0.0516575 -0.0319094,-0.0319094 -0.0516575,-0.0760118 -0.0516575,-0.12472 0,-0.0294528 -0.0238819,-0.0533346 -0.0533346,-0.0533346 -0.0294528,0 -0.0533346,0.0238819 -0.0533346,0.0533346 0,0.0781496 0.031685,0.148917 0.0829094,0.200138 0.0512205,0.0512205 0.121988,0.0829094 0.200142,0.0829094 0.0781535,0 0.148921,-0.031689 0.200142,-0.0829094 0.0512244,-0.0512205 0.0829094,-0.121988 0.0829094,-0.200138z"/>
  <path class="fil1" d="M2.6661 3.31161c0,-0.0294528 -0.0238819,-0.0533346 -0.0533346,-0.0533346 -0.0294528,0 -0.0533346,0.0238819 -0.0533346,0.0533346 0,0.0781535 0.031689,0.148921 0.0829094,0.200142 0.0512205,0.0512165 0.121988,0.0829055 0.200142,0.0829055 0.0781535,0 0.148917,-0.031689 0.200138,-0.0829094 0.0512244,-0.0512205 0.0829094,-0.121988 0.0829094,-0.200138 0,-0.0294528 -0.0238819,-0.0533346 -0.0533346,-0.0533346 -0.0294528,0 -0.0533346,0.0238819 -0.0533346,0.0533346 0,0.0487087 -0.019748,0.092811 -0.0516575,0.12472 -0.0319134,0.0319134 -0.0760118,0.0516575 -0.12472,0.0516575 -0.0487087,0 -0.092811,-0.0197441 -0.124724,-0.0516535 -0.0319134,-0.0319134 -0.0516575,-0.0760157 -0.0516575,-0.124724z"/>
  <path class="fil1" d="M3.58496 3.31161c0,-0.0294528 -0.0238819,-0.0533346 -0.0533346,-0.0533346 -0.0294528,0 -0.0533346,0.0238819 -0.0533346,0.0533346 0,0.0487087 -0.0197441,0.092811 -0.0516575,0.124724 -0.0319134,0.0319094 -0.0760157,0.0516535 -0.124724,0.0516535 -0.0487087,0 -0.092811,-0.0197441 -0.124724,-0.0516535 -0.0319094,-0.0319134 -0.0516535,-0.0760157 -0.0516535,-0.124724 0,-0.0294528 -0.0238819,-0.0533346 -0.0533346,-0.0533346 -0.0294528,0 -0.0533346,0.0238819 -0.0533346,0.0533346 0,0.0781496 0.031685,0.148917 0.0829055,0.200142 0.0512205,0.0512165 0.121988,0.0829055 0.200142,0.0829055 0.0781496,0 0.148917,-0.031685 0.200142,-0.0829055 0.0512205,-0.0512205 0.0829094,-0.121988 0.0829094,-0.200142z"/>
  <path class="fil1" d="M1.7132 2.82667c0,-0.0294528 -0.0238819,-0.0533346 -0.0533346,-0.0533346 -0.0294528,0 -0.0533346,0.0238819 -0.0533346,0.0533346 0,0.0781535 0.031689,0.148921 0.0829094,0.200142 0.0512205,0.0512165 0.121988,0.0829055 0.200142,0.0829055 0.0781535,0 0.148921,-0.031689 0.200142,-0.0829055 0.0512165,-0.0512205 0.0829055,-0.121988 0.0829055,-0.200142 0,-0.0294528 -0.0238819,-0.0533346 -0.0533346,-0.0533346 -0.0294528,0 -0.0533346,0.0238819 -0.0533346,0.0533346 0,0.0487087 -0.0197441,0.092811 -0.0516535,0.124724 -0.0319134,0.0319094 -0.0760157,0.0516535 -0.124724,0.0516535 -0.0487087,0 -0.092811,-0.0197441 -0.124724,-0.0516535 -0.0319134,-0.0319134 -0.0516575,-0.0760157 -0.0516575,-0.124724z"/>
  <path class="fil1" d="M2.63206 2.82667c0,-0.0294528 -0.0238819,-0.0533346 -0.0533346,-0.0533346 -0.0294528,0 -0.0533346,0.0238819 -0.0533346,0.0533346 0,0.0487087 -0.0197441,0.092811 -0.0516575,0.124724 -0.0319094,0.0319094 -0.0760118,0.0516535 -0.124724,0.0516535 -0.0487087,0 -0.092811,-0.0197441 -0.124724,-0.0516535 -0.0319094,-0.0319134 -0.0516535,-0.0760157 -0.0516535,-0.124724 0,-0.0294528 -0.0238819,-0.0533346 -0.0533346,-0.0533346 -0.0294528,0 -0.0533346,0.0238819 -0.0533346,0.0533346 0,0.0781535 0.031689,0.148921 0.0829055,0.200142 0.0512205,0.0512165 0.121988,0.0829055 0.200142,0.0829055 0.0781575,0 0.148921,-0.031685 0.200142,-0.0829055 0.0512205,-0.0512205 0.0829094,-0.121988 0.0829094,-0.200142z"/>
  <path class="fil1" d="M3.09149 2.82667c0,-0.0294528 -0.0238819,-0.0533346 -0.0533346,-0.0533346 -0.0294528,0 -0.0533346,0.0238819 -0.0533346,0.0533346 0,0.0487087 -0.0197441,0.092811 -0.0516575,0.124724 -0.0319134,0.0319094 -0.0760157,0.0516535 -0.124724,0.0516535 -0.0487087,0 -0.092811,-0.0197441 -0.124724,-0.0516575 -0.0319094,-0.0319094 -0.0516535,-0.0760118 -0.0516535,-0.12472 0,-0.0294528 -0.0238819,-0.0533346 -0.0533346,-0.0533346 -0.0294528,0 -0.0533346,0.0238819 -0.0533346,0.0533346 0,0.0781535 0.031685,0.148917 0.0829055,0.200138 0.0512205,0.0512205 0.121988,0.0829094 0.200142,0.0829094 0.0781535,0 0.148921,-0.031689 0.200142,-0.0829055 0.0512205,-0.0512205 0.0829094,-0.121988 0.0829094,-0.200142z"/>
  <path class="fil1" d="M3.09149 2.82667c0,-0.0294528 -0.0238819,-0.0533346 -0.0533346,-0.0533346 -0.0294528,0 -0.0533346,0.0238819 -0.0533346,0.0533346 0,0.0781535 0.031689,0.148921 0.0829094,0.200142 0.0512205,0.0512165 0.121988,0.0829055 0.200146,0.0829055 0.0781535,0 0.148917,-0.031689 0.200138,-0.0829094 0.0512205,-0.0512165 0.0829094,-0.121984 0.0829094,-0.200138 0,-0.0294528 -0.0238819,-0.0533346 -0.0533346,-0.0533346 -0.0294528,0 -0.0533346,0.0238819 -0.0533346,0.0533346 0,0.0487087 -0.019748,0.092811 -0.0516575,0.12472 -0.0319134,0.0319134 -0.0760118,0.0516575 -0.12472,0.0516575 -0.0487126,0 -0.092815,-0.0197441 -0.124728,-0.0516535 -0.0319134,-0.0319134 -0.0516575,-0.0760157 -0.0516575,-0.124724z"/>
  <path class="fil1" d="M4.01035 2.82667c0,-0.0294528 -0.0238819,-0.0533346 -0.0533346,-0.0533346 -0.0294528,0 -0.0533346,0.0238819 -0.0533346,0.0533346 0,0.0487087 -0.0197441,0.092811 -0.0516575,0.124724 -0.0319134,0.0319094 -0.0760157,0.0516535 -0.124728,0.0516535 -0.0487087,0 -0.0928071,-0.0197441 -0.12472,-0.0516535 -0.0319094,-0.0319134 -0.0516535,-0.0760157 -0.0516535,-0.124724 0,-0.0294528 -0.0238819,-0.0533346 -0.0533346,-0.0533346 -0.0294528,0 -0.0533346,0.0238819 -0.0533346,0.0533346 0,0.0781535 0.031689,0.148921 0.0829055,0.200142 0.0512205,0.0512165 0.121984,0.0829055 0.200138,0.0829055 0.0781575,0 0.148925,-0.031689 0.200146,-0.0829055 0.0512205,-0.0512205 0.0829094,-0.121988 0.0829094,-0.200142z"/>
  <rect class="fil2" width="6.82666" height="6.82666"/>
 </g>
</svg>
