<?xml version="1.0" encoding="UTF-8"?>
<!DOCTYPE svg PUBLIC "-//W3C//DTD SVG 1.1//EN" "http://www.w3.org/Graphics/SVG/1.1/DTD/svg11.dtd">
<!-- Creator: CorelDRAW -->
<svg xmlns="http://www.w3.org/2000/svg" xml:space="preserve" width="6.82666in" height="6.82666in" style="shape-rendering:geometricPrecision; text-rendering:geometricPrecision; image-rendering:optimizeQuality; fill-rule:evenodd; clip-rule:evenodd"
viewBox="0 0 6.82666 6.82666"
 xmlns:xlink="http://www.w3.org/1999/xlink">
 <defs>
  <style type="text/css">
   <![CDATA[
    .fil2 {fill:none}
    .fil0 {fill:#212121;fill-rule:nonzero}
    .fil1 {fill:#66BB6A;fill-rule:nonzero}
   ]]>
  </style>
 </defs>
 <g id="Layer_x0020_1">
  <metadata id="CorelCorpID_0Corel-Layer"/>
  <path class="fil0" d="M0.853331 2.02666l5.12 0c0.0589094,0 0.106669,0.0477598 0.106669,0.106669l0 2.56001c0,0.0589094 -0.0477598,0.106669 -0.106669,0.106669l-5.12 0c-0.0589094,0 -0.106669,-0.0477598 -0.106669,-0.106669l0 -2.56001c0,-0.0589094 0.0477598,-0.106669 0.106669,-0.106669zm5.01333 0.213339l-4.90666 0 0 2.34667 4.90666 0 0 -2.34667z"/>
  <path class="fil0" d="M1.28 2.45333l1.49333 0c0.0589094,0 0.106669,0.0477598 0.106669,0.106669l0 1.70667c0,0.0589094 -0.0477598,0.106669 -0.106669,0.106669l-1.49333 0c-0.0589094,0 -0.106669,-0.0477598 -0.106669,-0.106669l0 -1.70667c0,-0.0589094 0.0477598,-0.106669 0.106669,-0.106669zm1.38667 0.213339l-1.28 0 0 1.49333 1.28 0 0 -1.49333z"/>
  <polygon class="fil0" points="3.09333,3.73333 5.65333,3.73333 5.65333,3.94667 3.09333,3.94667 "/>
  <polygon class="fil0" points="3.09333,4.15998 5.65333,4.15998 5.65333,4.37332 3.09333,4.37332 "/>
  <path class="fil1" d="M3.50813 3.62763l-0.419689 -1.1743 0.25728 0 0.296925 0.869177 0.287626 -0.869177 0.251539 0 -0.420508 1.1743 -0.253173 0zm0.787425 0l0 -1.1743 0.237047 0 0 1.1743 -0.237047 0zm0.463161 0l0 -1.1743 0.380311 0c0.144087,0 0.238138,0.00601181 0.281886,0.0177717 0.0672598,0.0175 0.123858,0.0557756 0.169244,0.114835 0.0453898,0.0590551 0.0680787,0.135335 0.0680787,0.228571 0,0.0721772 -0.013122,0.132878 -0.0393701,0.181815 -0.026252,0.0492126 -0.0593307,0.0877677 -0.0997992,0.115925 -0.040189,0.0278898 -0.0812008,0.0464803 -0.12276,0.0555039 -0.0565945,0.0112126 -0.138618,0.0169528 -0.246071,0.0169528l-0.154476 0 0 0.442925 -0.237043 0zm0.237043 -0.975528l0 0.333012 0.129594 0c0.0935118,0 0.156118,-0.00601181 0.187563,-0.018315 0.0314409,-0.0123071 0.0560512,-0.0314449 0.0740945,-0.0576969 0.0177717,-0.0262441 0.0267953,-0.0565906 0.0267953,-0.091315 0,-0.0426535 -0.0125787,-0.0779252 -0.0377323,-0.105811 -0.0248819,-0.0276102 -0.0568701,-0.0451102 -0.0951457,-0.0519488 -0.028437,-0.0054685 -0.0853031,-0.0079252 -0.17061,-0.0079252l-0.114559 0z"/>
  <rect class="fil2" width="6.82666" height="6.82666"/>
 </g>
</svg>
