<?xml version="1.0" encoding="UTF-8"?>
<!DOCTYPE svg PUBLIC "-//W3C//DTD SVG 1.1//EN" "http://www.w3.org/Graphics/SVG/1.1/DTD/svg11.dtd">
<!-- Creator: CorelDRAW -->
<svg xmlns="http://www.w3.org/2000/svg" xml:space="preserve" width="6.82666in" height="6.82666in" style="shape-rendering:geometricPrecision; text-rendering:geometricPrecision; image-rendering:optimizeQuality; fill-rule:evenodd; clip-rule:evenodd"
viewBox="0 0 6.82666 6.82666"
 xmlns:xlink="http://www.w3.org/1999/xlink">
 <defs>
  <style type="text/css">
   <![CDATA[
    .fil0 {fill:none}
    .fil2 {fill:#212121;fill-rule:nonzero}
    .fil1 {fill:#66BB6A;fill-rule:nonzero}
   ]]>
  </style>
 </defs>
 <g id="Layer_x0020_1">
  <metadata id="CorelCorpID_0Corel-Layer"/>
  <rect class="fil0" width="6.82666" height="6.82666"/>
  <path class="fil1" d="M3.38819 3.77027c0.184441,0 0.351437,0.0747717 0.472315,0.19565 0.120878,0.120878 0.195654,0.287874 0.195654,0.472315 0,0.184441 -0.0747717,0.351441 -0.19565,0.472319 -0.120878,0.120878 -0.287878,0.19565 -0.472319,0.19565 -0.184441,0 -0.351441,-0.0747717 -0.472319,-0.19565 -0.120878,-0.120878 -0.19565,-0.287878 -0.19565,-0.472319 0,-0.184441 0.0747756,-0.351437 0.195654,-0.472315 0.120878,-0.120878 0.287874,-0.19565 0.472315,-0.19565zm0.32148 0.346484c-0.0822638,-0.0822638 -0.195925,-0.133146 -0.32148,-0.133146 -0.125555,0 -0.239217,0.0508819 -0.32148,0.133146 -0.0822638,0.0822638 -0.13315,0.195925 -0.13315,0.32148 0,0.125555 0.0508819,0.23922 0.133146,0.321484 0.0822638,0.0822638 0.195929,0.133146 0.321484,0.133146 0.125555,0 0.23922,-0.0508819 0.321484,-0.133146 0.0822638,-0.0822638 0.133146,-0.195929 0.133146,-0.321484 0,-0.125555 -0.0508858,-0.239217 -0.13315,-0.32148z"/>
  <path class="fil2" d="M2.06163 4.06328c-0.015878,0.0566063 0.0171417,0.115374 0.073748,0.131252 0.0566063,0.015878 0.115374,-0.0171417 0.131252,-0.073748 0.0709173,-0.250744 0.220894,-0.462744 0.418335,-0.612087 0.197362,-0.149287 0.442299,-0.23587 0.703228,-0.23587 0.263035,0 0.509591,0.0878661 0.707539,0.239047 0.198291,0.151449 0.348091,0.366161 0.417205,0.619531 0.0154173,0.0566063 0.073811,0.09 0.130417,0.0745827 0.0566063,-0.0154173 0.09,-0.073811 0.0745827,-0.130417 -0.0818425,-0.300031 -0.258858,-0.554004 -0.493039,-0.732862 -0.234528,-0.179118 -0.526118,-0.28322 -0.836705,-0.28322 -0.308283,0 -0.597933,0.102492 -0.831559,0.279209 -0.233551,0.176657 -0.411012,0.42761 -0.495004,0.724583z"/>
  <path class="fil2" d="M1.4637 3.73792c-0.0200197,0.0552283 0.00851969,0.116232 0.063748,0.136252 0.0552283,0.0200197 0.116232,-0.00851969 0.136252,-0.063748 0.131961,-0.362563 0.370142,-0.664425 0.671681,-0.875563 0.30139,-0.211039 0.666602,-0.331547 1.05281,-0.331547 0.397193,0 0.771744,0.127657 1.0777,0.349646 0.306079,0.222071 0.543673,0.538453 0.666831,0.915795 0.0181772,0.0559173 0.078252,0.0865118 0.134169,0.0683346 0.0559173,-0.0181772 0.0865118,-0.078252 0.0683346,-0.134169 -0.137539,-0.421402 -0.402744,-0.774626 -0.744335,-1.02246 -0.341693,-0.247913 -0.759697,-0.39048 -1.2027,-0.39048 -0.430024,0 -0.83748,0.134748 -1.17448,0.37072 -0.336843,0.235858 -0.602807,0.57278 -0.750012,0.977224z"/>
  <path class="fil2" d="M0.876657 3.40062c-0.0223189,0.0543071 0.00361024,0.116433 0.0579173,0.138752 0.0543071,0.0223189 0.116433,-0.00361024 0.138752,-0.0579173 0.193551,-0.468378 0.518819,-0.855386 0.922457,-1.12533 0.403224,-0.269669 0.885122,-0.422323 1.39241,-0.422323 0.531913,0 1.03451,0.167673 1.44794,0.460618 0.413945,0.293307 0.738957,0.711882 0.915126,1.21327 0.0193268,0.0554567 0.0799606,0.0847441 0.135417,0.0654173 0.0554567,-0.0193268 0.0847441,-0.0799606 0.0654173,-0.135417 -0.191272,-0.544358 -0.543799,-0.998571 -0.99263,-1.3166 -0.449335,-0.318394 -0.994776,-0.500626 -1.57127,-0.500626 -0.549618,0 -1.0725,0.165909 -1.51074,0.458992 -0.437819,0.292803 -0.790705,0.712764 -1.0008,1.22117z"/>
 </g>
</svg>
